<svg width="92.859741" height="14.549316" viewBox="0 0 92.8597 14.5493" fill="none" xmlns="http://www.w3.org/2000/svg" xmlns:xlink="http://www.w3.org/1999/xlink">
	<desc>
			Created with Pixso.
	</desc>
	<defs/>
	<path id="Vector" d="M4.07 9.99L0 9.99C0 10.54 0.09 11.08 0.29 11.61C0.49 12.15 0.83 12.64 1.29 13.09C1.75 13.53 2.36 13.88 3.14 14.15C3.91 14.41 4.88 14.54 6.04 14.54C7.42 14.54 8.56 14.34 9.46 13.94C10.36 13.52 11.03 12.96 11.47 12.24C11.92 11.53 12.15 10.71 12.15 9.8C12.15 8.83 11.95 8.05 11.56 7.48C11.16 6.9 10.67 6.46 10.06 6.18C9.45 5.89 8.82 5.69 8.17 5.6L6.36 5.32C5.79 5.23 5.34 5.1 5.01 4.94C4.68 4.77 4.52 4.53 4.52 4.23C4.52 3.92 4.64 3.67 4.89 3.45C5.14 3.23 5.54 3.12 6.09 3.12C6.51 3.12 6.86 3.19 7.12 3.34C7.39 3.48 7.59 3.65 7.72 3.85C7.85 4.05 7.92 4.25 7.93 4.45L11.86 4.45C11.86 3.72 11.65 3.01 11.24 2.33C10.83 1.65 10.2 1.09 9.35 0.66C8.5 0.22 7.41 0 6.08 0C4.91 0 3.88 0.17 3 0.53C2.13 0.89 1.45 1.41 0.96 2.1C0.47 2.78 0.22 3.61 0.22 4.58C0.22 5.44 0.39 6.16 0.74 6.73C1.08 7.3 1.56 7.75 2.16 8.07C2.77 8.4 3.46 8.63 4.23 8.77L5.94 9.07C6.57 9.18 7.06 9.31 7.39 9.48C7.74 9.64 7.91 9.9 7.91 10.26C7.91 10.45 7.85 10.64 7.73 10.81C7.62 10.97 7.44 11.11 7.18 11.21C6.92 11.31 6.57 11.37 6.13 11.37C5.8 11.37 5.5 11.33 5.24 11.25C4.99 11.17 4.78 11.06 4.6 10.93C4.43 10.8 4.3 10.65 4.21 10.49C4.12 10.32 4.07 10.16 4.07 9.99ZM16.37 14.31L20.71 14.31L20.71 3.69L24.3 3.69L24.3 0.22L12.79 0.22L12.79 3.69L16.37 3.69L16.37 14.31ZM35.12 0.83C34.29 0.42 33.26 0.22 32.03 0.22L25.56 0.22L25.56 14.31L29.8 14.31L29.8 9.61L30.89 9.61L33.15 14.31L37.92 14.31L35.15 9.07C35.42 8.94 35.74 8.71 36.13 8.38C36.52 8.05 36.87 7.61 37.16 7.06C37.46 6.51 37.62 5.85 37.62 5.07C37.62 4.1 37.41 3.25 36.99 2.52C36.57 1.79 35.94 1.23 35.12 0.83ZM31.37 6.72L29.8 6.72L29.8 3.33L31.37 3.33C31.82 3.33 32.23 3.47 32.59 3.76C32.96 4.04 33.14 4.47 33.14 5.05C33.14 5.62 32.96 6.05 32.61 6.32C32.25 6.59 31.84 6.72 31.37 6.72ZM43.64 14.31L39.34 14.31L39.34 0.22L43.64 0.22L43.64 0.22L59.65 0.22L59.65 3.65L43.64 3.65L43.64 3.55L43.63 3.55L43.63 5.77L43.64 5.77L43.64 5.55L59.65 5.55L59.65 8.98L43.64 8.98L43.64 8.79L43.63 8.79L43.63 10.97L43.64 10.97L43.64 10.88L59.65 10.88L59.65 14.31L49.4 14.31L43.64 14.31ZM62.44 14.31L66.72 14.31L67.35 11.64L71.21 11.64L71.82 14.31L76.45 14.31L72.21 0.22L66.71 0.22L62.44 14.31ZM69.2 3.8L69.42 3.8L70.52 8.6L68.07 8.6L69.2 3.8ZM77.64 14.31L81.47 14.31L81.47 6.45L81.67 6.45L84.09 11.63L86.37 11.63L88.76 6.45L88.96 6.45L88.96 14.31L92.85 14.31L92.85 0.22L88.36 0.22L85.33 6.51L85.19 6.51L82.17 0.22L77.64 0.22L77.64 14.31Z" fill="#FFFFFF" fill-opacity="1.000000" fill-rule="evenodd"/>
</svg>
